<svg xmlns="http://www.w3.org/2000/svg" xmlns:xlink="http://www.w3.org/1999/xlink" width="500" zoomAndPan="magnify" viewBox="0 0 375 374.999991" height="500" preserveAspectRatio="xMidYMid meet" version="1.0"><defs><clipPath id="613bc186b4"><path d="M 56.046875 39.097656 L 317.796875 39.097656 L 317.796875 337 L 56.046875 337 Z M 56.046875 39.097656 " clip-rule="nonzero"/></clipPath></defs><rect x="-37.5" width="450" fill="#ffffff" y="-37.499999" height="449.999989" fill-opacity="1"/><rect x="-37.5" width="450" fill="#ffffff" y="-37.499999" height="449.999989" fill-opacity="1"/><rect x="-37.5" width="450" fill="#000000" y="-37.499999" height="449.999989" fill-opacity="1"/><g clip-path="url(#613bc186b4)"><path fill="#e44d26" d="M 79.808594 307.105469 L 55.972656 39.933594 L 317.871094 39.933594 L 294.015625 307.070312 L 186.753906 336.773438 Z M 79.808594 307.105469 " fill-opacity="1" fill-rule="nonzero"/></g><path fill="#f16529" d="M 273.585938 290.054688 L 293.976562 61.78125 L 186.921875 61.78125 L 186.921875 314.074219 Z M 273.585938 290.054688 " fill-opacity="1" fill-rule="nonzero"/><path fill="#ebebeb" d="M 186.808594 94.542969 L 104.703125 94.542969 L 113.546875 193.636719 L 186.921875 193.636719 L 186.921875 160.871094 L 143.535156 160.871094 L 140.539062 127.320312 L 186.921875 127.320312 L 186.921875 94.542969 Z M 186.921875 245.863281 L 186.78125 245.898438 L 150.265625 236.046875 L 147.945312 209.917969 L 115.011719 209.917969 L 119.609375 261.363281 L 186.773438 279.917969 L 186.921875 279.871094 Z M 186.921875 245.863281 " fill-opacity="1" fill-rule="nonzero"/><path fill="#ffffff" d="M 186.808594 193.636719 L 227.183594 193.636719 L 223.472656 236.121094 L 186.902344 245.984375 L 186.902344 280.074219 L 254.121094 261.457031 L 263.125 160.851562 L 186.921875 160.851562 Z M 268.15625 103.339844 L 268.933594 94.542969 L 186.789062 94.542969 L 186.789062 127.308594 L 265.984375 127.308594 L 266.632812 119.945312 Z M 268.15625 103.339844 " fill-opacity="1" fill-rule="nonzero"/></svg>