<svg xmlns="http://www.w3.org/2000/svg" xmlns:xlink="http://www.w3.org/1999/xlink" width="500" zoomAndPan="magnify" viewBox="0 0 375 374.999991" height="500" preserveAspectRatio="xMidYMid meet" version="1.0"><defs><clipPath id="98ed020dfd"><path d="M 34.472656 34.476562 L 340.472656 34.476562 L 340.472656 340.472656 L 34.472656 340.472656 Z M 34.472656 34.476562 " clip-rule="nonzero"/></clipPath></defs><rect x="-37.5" width="450" fill="#ffffff" y="-37.499999" height="449.999989" fill-opacity="1"/><rect x="-37.5" width="450" fill="#000000" y="-37.499999" height="449.999989" fill-opacity="1"/><g clip-path="url(#98ed020dfd)"><path fill="#f03c2e" d="M 334.699219 173.847656 L 201.101562 40.25 C 200.644531 39.792969 200.167969 39.359375 199.667969 38.953125 C 199.167969 38.542969 198.652344 38.15625 198.117188 37.800781 C 197.578125 37.441406 197.027344 37.109375 196.457031 36.804688 C 195.886719 36.5 195.304688 36.226562 194.710938 35.976562 C 194.113281 35.730469 193.507812 35.511719 192.886719 35.324219 C 192.269531 35.136719 191.644531 34.980469 191.011719 34.855469 C 190.378906 34.730469 189.742188 34.636719 189.101562 34.570312 C 188.457031 34.507812 187.8125 34.476562 187.167969 34.476562 C 186.523438 34.476562 185.878906 34.507812 185.238281 34.570312 C 184.59375 34.636719 183.957031 34.730469 183.324219 34.855469 C 182.691406 34.980469 182.066406 35.136719 181.449219 35.324219 C 180.832031 35.511719 180.222656 35.730469 179.628906 35.976562 C 179.03125 36.226562 178.449219 36.5 177.878906 36.804688 C 177.3125 37.109375 176.757812 37.441406 176.222656 37.800781 C 175.683594 38.15625 175.167969 38.542969 174.667969 38.953125 C 174.167969 39.359375 173.691406 39.792969 173.234375 40.25 L 145.503906 67.980469 L 180.695312 103.171875 C 188.878906 100.304688 198.25 102.261719 204.773438 108.785156 C 205.546875 109.558594 206.261719 110.382812 206.917969 111.257812 C 207.574219 112.128906 208.167969 113.046875 208.695312 114 C 209.226562 114.957031 209.683594 115.949219 210.074219 116.96875 C 210.464844 117.988281 210.78125 119.03125 211.027344 120.097656 C 211.273438 121.164062 211.441406 122.242188 211.535156 123.332031 C 211.628906 124.417969 211.644531 125.511719 211.585938 126.601562 C 211.527344 127.691406 211.390625 128.773438 211.179688 129.847656 C 210.972656 130.921875 210.6875 131.972656 210.328125 133.007812 L 244.246094 166.925781 C 252.453125 164.09375 261.917969 165.921875 268.46875 172.488281 C 269.011719 173.035156 269.527344 173.601562 270.015625 174.195312 C 270.503906 174.789062 270.960938 175.40625 271.386719 176.042969 C 271.816406 176.683594 272.210938 177.339844 272.570312 178.019531 C 272.933594 178.695312 273.261719 179.390625 273.558594 180.101562 C 273.851562 180.808594 274.109375 181.53125 274.332031 182.265625 C 274.554688 183.003906 274.742188 183.746094 274.890625 184.5 C 275.042969 185.253906 275.15625 186.011719 275.230469 186.777344 C 275.304688 187.542969 275.34375 188.308594 275.34375 189.078125 C 275.34375 189.84375 275.304688 190.613281 275.230469 191.375 C 275.15625 192.140625 275.042969 192.902344 274.894531 193.652344 C 274.742188 194.40625 274.558594 195.152344 274.335938 195.886719 C 274.109375 196.621094 273.851562 197.34375 273.558594 198.054688 C 273.265625 198.765625 272.9375 199.457031 272.574219 200.136719 C 272.210938 200.8125 271.816406 201.472656 271.390625 202.109375 C 270.964844 202.75 270.507812 203.367188 270.019531 203.960938 C 269.53125 204.554688 269.015625 205.121094 268.472656 205.664062 C 267.929688 206.210938 267.359375 206.722656 266.765625 207.210938 C 266.171875 207.699219 265.554688 208.15625 264.917969 208.582031 C 264.277344 209.007812 263.621094 209.402344 262.941406 209.765625 C 262.265625 210.128906 261.570312 210.457031 260.859375 210.75 C 260.148438 211.042969 259.425781 211.300781 258.691406 211.523438 C 257.957031 211.746094 257.210938 211.933594 256.457031 212.082031 C 255.707031 212.234375 254.945312 212.34375 254.179688 212.421875 C 253.417969 212.496094 252.648438 212.53125 251.882812 212.53125 C 251.113281 212.53125 250.347656 212.496094 249.582031 212.417969 C 248.816406 212.34375 248.058594 212.230469 247.304688 212.078125 C 246.550781 211.929688 245.808594 211.742188 245.070312 211.519531 C 244.335938 211.296875 243.613281 211.039062 242.90625 210.742188 C 242.195312 210.449219 241.5 210.121094 240.824219 209.757812 C 240.148438 209.394531 239.488281 209 238.851562 208.574219 C 238.210938 208.144531 237.59375 207.6875 237 207.199219 C 236.40625 206.710938 235.839844 206.195312 235.296875 205.652344 C 228.410156 198.769531 226.710938 188.632812 230.191406 180.148438 L 198.558594 148.515625 L 198.558594 231.757812 C 200.867188 232.902344 202.941406 234.382812 204.773438 236.195312 C 205.316406 236.738281 205.832031 237.308594 206.320312 237.902344 C 206.804688 238.496094 207.261719 239.109375 207.6875 239.75 C 208.117188 240.386719 208.511719 241.046875 208.871094 241.722656 C 209.234375 242.398438 209.5625 243.09375 209.855469 243.804688 C 210.148438 244.511719 210.410156 245.234375 210.632812 245.96875 C 210.855469 246.703125 211.039062 247.449219 211.191406 248.203125 C 211.339844 248.957031 211.453125 249.714844 211.527344 250.476562 C 211.605469 251.242188 211.640625 252.007812 211.640625 252.777344 C 211.640625 253.542969 211.605469 254.3125 211.527344 255.074219 C 211.453125 255.839844 211.339844 256.597656 211.191406 257.351562 C 211.039062 258.105469 210.855469 258.847656 210.632812 259.582031 C 210.410156 260.320312 210.148438 261.042969 209.855469 261.75 C 209.5625 262.460938 209.234375 263.152344 208.871094 263.832031 C 208.511719 264.507812 208.117188 265.167969 207.6875 265.804688 C 207.261719 266.445312 206.804688 267.058594 206.320312 267.652344 C 205.832031 268.246094 205.316406 268.816406 204.773438 269.359375 C 204.230469 269.902344 203.660156 270.417969 203.066406 270.902344 C 202.472656 271.390625 201.859375 271.847656 201.21875 272.273438 C 200.582031 272.703125 199.921875 273.09375 199.246094 273.457031 C 198.570312 273.820312 197.875 274.148438 197.164062 274.441406 C 196.457031 274.734375 195.734375 274.992188 195 275.214844 C 194.265625 275.441406 193.519531 275.625 192.765625 275.777344 C 192.011719 275.925781 191.253906 276.039062 190.492188 276.113281 C 189.726562 276.1875 188.960938 276.226562 188.191406 276.226562 C 187.421875 276.226562 186.65625 276.1875 185.894531 276.113281 C 185.128906 276.039062 184.371094 275.925781 183.617188 275.777344 C 182.863281 275.625 182.121094 275.441406 181.382812 275.214844 C 180.648438 274.992188 179.925781 274.734375 179.21875 274.441406 C 178.507812 274.148438 177.816406 273.820312 177.136719 273.457031 C 176.460938 273.09375 175.800781 272.703125 175.164062 272.273438 C 174.523438 271.847656 173.910156 271.390625 173.316406 270.902344 C 172.722656 270.417969 172.152344 269.902344 171.609375 269.359375 C 171.066406 268.816406 170.550781 268.246094 170.0625 267.652344 C 169.574219 267.0625 169.117188 266.445312 168.691406 265.804688 C 168.261719 265.167969 167.867188 264.511719 167.507812 263.832031 C 167.144531 263.15625 166.816406 262.460938 166.519531 261.753906 C 166.226562 261.042969 165.96875 260.320312 165.746094 259.585938 C 165.519531 258.851562 165.335938 258.105469 165.183594 257.351562 C 165.035156 256.597656 164.921875 255.839844 164.847656 255.074219 C 164.769531 254.3125 164.734375 253.546875 164.734375 252.777344 C 164.734375 252.007812 164.769531 251.242188 164.847656 250.476562 C 164.921875 249.714844 165.035156 248.953125 165.183594 248.199219 C 165.335938 247.449219 165.519531 246.703125 165.746094 245.96875 C 165.96875 245.234375 166.226562 244.511719 166.519531 243.800781 C 166.816406 243.09375 167.144531 242.398438 167.507812 241.722656 C 167.867188 241.042969 168.261719 240.386719 168.691406 239.746094 C 169.117188 239.109375 169.574219 238.492188 170.0625 237.898438 C 170.550781 237.304688 171.066406 236.738281 171.609375 236.195312 C 173.875 233.9375 176.390625 232.226562 179.289062 231.078125 L 179.289062 147.0625 C 176.496094 145.914062 173.875 144.222656 171.609375 141.949219 C 170.792969 141.128906 170.039062 140.257812 169.347656 139.328125 C 168.660156 138.398438 168.042969 137.421875 167.496094 136.402344 C 166.953125 135.382812 166.484375 134.324219 166.097656 133.234375 C 165.710938 132.144531 165.402344 131.035156 165.179688 129.898438 C 164.957031 128.761719 164.816406 127.617188 164.765625 126.460938 C 164.710938 125.304688 164.742188 124.152344 164.859375 123 C 164.976562 121.851562 165.175781 120.714844 165.460938 119.59375 C 165.746094 118.472656 166.113281 117.378906 166.5625 116.308594 L 131.847656 81.617188 L 40.242188 173.128906 C 39.785156 173.585938 39.351562 174.066406 38.941406 174.5625 C 38.53125 175.0625 38.148438 175.582031 37.789062 176.117188 C 37.429688 176.652344 37.097656 177.207031 36.792969 177.777344 C 36.488281 178.34375 36.210938 178.929688 35.964844 179.523438 C 35.71875 180.121094 35.5 180.726562 35.3125 181.347656 C 35.125 181.964844 34.96875 182.589844 34.84375 183.222656 C 34.714844 183.855469 34.621094 184.492188 34.558594 185.136719 C 34.496094 185.777344 34.464844 186.421875 34.464844 187.066406 C 34.464844 187.714844 34.496094 188.359375 34.558594 189 C 34.621094 189.644531 34.714844 190.28125 34.84375 190.914062 C 34.96875 191.546875 35.125 192.171875 35.3125 192.789062 C 35.5 193.410156 35.71875 194.015625 35.964844 194.613281 C 36.210938 195.207031 36.488281 195.792969 36.792969 196.359375 C 37.097656 196.929688 37.429688 197.484375 37.789062 198.019531 C 38.148438 198.554688 38.53125 199.074219 38.941406 199.574219 C 39.351562 200.070312 39.785156 200.550781 40.242188 201.003906 L 173.847656 334.59375 C 174.304688 335.050781 174.78125 335.484375 175.28125 335.894531 C 175.78125 336.300781 176.296875 336.6875 176.832031 337.042969 C 177.371094 337.402344 177.921875 337.734375 178.492188 338.039062 C 179.0625 338.34375 179.644531 338.621094 180.238281 338.867188 C 180.835938 339.113281 181.441406 339.332031 182.0625 339.519531 C 182.679688 339.707031 183.304688 339.863281 183.9375 339.988281 C 184.570312 340.113281 185.207031 340.207031 185.847656 340.273438 C 186.492188 340.335938 187.136719 340.367188 187.78125 340.367188 C 188.425781 340.367188 189.070312 340.335938 189.710938 340.273438 C 190.355469 340.207031 190.992188 340.113281 191.625 339.988281 C 192.257812 339.863281 192.882812 339.707031 193.5 339.519531 C 194.117188 339.332031 194.726562 339.113281 195.320312 338.867188 C 195.917969 338.621094 196.5 338.34375 197.070312 338.039062 C 197.636719 337.734375 198.191406 337.402344 198.726562 337.042969 C 199.265625 336.6875 199.78125 336.300781 200.28125 335.894531 C 200.78125 335.484375 201.257812 335.050781 201.714844 334.59375 L 334.699219 201.816406 C 335.15625 201.363281 335.589844 200.882812 336 200.386719 C 336.410156 199.886719 336.792969 199.367188 337.152344 198.832031 C 337.511719 198.296875 337.84375 197.742188 338.148438 197.171875 C 338.453125 196.605469 338.726562 196.019531 338.976562 195.425781 C 339.222656 194.828125 339.441406 194.222656 339.628906 193.601562 C 339.816406 192.984375 339.972656 192.359375 340.097656 191.726562 C 340.222656 191.09375 340.316406 190.457031 340.382812 189.8125 C 340.445312 189.171875 340.476562 188.527344 340.476562 187.882812 C 340.476562 187.234375 340.445312 186.589844 340.382812 185.949219 C 340.316406 185.304688 340.222656 184.667969 340.097656 184.035156 C 339.972656 183.402344 339.816406 182.777344 339.628906 182.160156 C 339.441406 181.539062 339.222656 180.933594 338.976562 180.335938 C 338.726562 179.742188 338.453125 179.15625 338.148438 178.589844 C 337.84375 178.019531 337.511719 177.464844 337.152344 176.929688 C 336.792969 176.394531 336.410156 175.875 336 175.375 C 335.589844 174.878906 335.15625 174.398438 334.699219 173.945312 " fill-opacity="1" fill-rule="nonzero"/></g></svg>