<svg xmlns="http://www.w3.org/2000/svg" xmlns:xlink="http://www.w3.org/1999/xlink" width="500" zoomAndPan="magnify" viewBox="0 0 375 374.999991" height="500" preserveAspectRatio="xMidYMid meet" version="1.0"><defs><clipPath id="47eee2e665"><path d="M 37.257812 37.257812 L 338.007812 37.257812 L 338.007812 338.007812 L 37.257812 338.007812 Z M 37.257812 37.257812 " clip-rule="nonzero"/></clipPath></defs><rect x="-37.5" width="450" fill="#ffffff" y="-37.499999" height="449.999989" fill-opacity="1"/><rect x="-37.5" width="450" fill="#000000" y="-37.499999" height="449.999989" fill-opacity="1"/><g clip-path="url(#47eee2e665)"><path fill="#f7df1e" d="M 37.257812 37.257812 L 338.007812 37.257812 L 338.007812 338.007812 L 37.257812 338.007812 Z M 37.257812 37.257812 " fill-opacity="1" fill-rule="nonzero"/></g><path fill="#000000" d="M 116.335938 288.582031 L 139.351562 274.660156 C 143.789062 282.53125 147.828125 289.195312 157.523438 289.195312 C 166.804688 289.195312 172.664062 285.550781 172.664062 271.429688 L 172.664062 175.332031 L 200.917969 175.332031 L 200.917969 271.832031 C 200.917969 301.09375 183.765625 314.429688 158.730469 314.429688 C 136.121094 314.429688 122.996094 302.714844 116.335938 288.582031 " fill-opacity="1" fill-rule="nonzero"/><path fill="#000000" d="M 216.273438 285.550781 L 239.289062 272.230469 C 245.351562 282.121094 253.222656 289.394531 267.144531 289.394531 C 278.855469 289.394531 286.328125 283.542969 286.328125 275.460938 C 286.328125 265.769531 278.65625 262.339844 265.734375 256.6875 L 258.671875 253.65625 C 238.277344 244.972656 224.757812 234.082031 224.757812 211.058594 C 224.757812 189.863281 240.898438 173.710938 266.144531 173.710938 C 284.105469 173.710938 297.03125 179.972656 306.3125 196.324219 L 284.308594 210.457031 C 279.464844 201.777344 274.214844 198.347656 266.144531 198.347656 C 257.863281 198.347656 252.609375 203.597656 252.609375 210.457031 C 252.609375 218.941406 257.863281 222.371094 269.972656 227.621094 L 277.035156 230.640625 C 301.058594 240.945312 314.59375 251.4375 314.59375 275.0625 C 314.59375 300.496094 294.609375 314.429688 267.753906 314.429688 C 241.507812 314.429688 224.554688 301.90625 216.273438 285.550781 " fill-opacity="1" fill-rule="nonzero"/></svg>