<svg xmlns="http://www.w3.org/2000/svg" xmlns:xlink="http://www.w3.org/1999/xlink" width="500" zoomAndPan="magnify" viewBox="0 0 375 374.999991" height="500" preserveAspectRatio="xMidYMid meet" version="1.0"><defs><clipPath id="76c27e2100"><path d="M 51.144531 38 L 324 38 L 324 337 L 51.144531 337 Z M 51.144531 38 " clip-rule="nonzero"/></clipPath></defs><rect x="-37.5" width="450" fill="#ffffff" y="-37.499999" height="449.999989" fill-opacity="1"/><rect x="-37.5" width="450" fill="#000000" y="-37.499999" height="449.999989" fill-opacity="1"/><g clip-path="url(#76c27e2100)"><path fill="#8cc84b" d="M 175.046875 41.210938 C 182.546875 36.964844 192.109375 36.949219 199.417969 41.210938 L 311.378906 104.292969 C 318.382812 108.226562 323.066406 116.03125 323.003906 124.097656 L 323.003906 250.582031 C 323.050781 258.988281 317.902344 266.960938 310.515625 270.820312 L 199.15625 333.613281 C 198.207031 334.136719 197.230469 334.59375 196.222656 334.988281 C 195.210938 335.378906 194.179688 335.707031 193.128906 335.960938 C 192.074219 336.21875 191.011719 336.402344 189.933594 336.515625 C 188.855469 336.628906 187.777344 336.671875 186.695312 336.640625 C 185.613281 336.613281 184.535156 336.511719 183.46875 336.335938 C 182.398438 336.164062 181.34375 335.921875 180.308594 335.605469 C 179.269531 335.292969 178.261719 334.910156 177.273438 334.464844 C 176.289062 334.015625 175.335938 333.503906 174.417969 332.929688 L 141 313.628906 C 138.722656 312.269531 136.164062 311.191406 134.550781 308.988281 C 135.976562 307.078125 138.507812 306.835938 140.570312 305.992188 C 145.21875 304.511719 149.476562 302.246094 153.75 299.847656 C 154.828125 299.097656 156.148438 299.378906 157.179688 300.050781 L 185.675781 316.523438 C 187.710938 317.695312 189.773438 316.148438 191.515625 315.164062 L 300.863281 253.488281 C 302.210938 252.832031 302.960938 251.40625 302.847656 249.925781 L 302.847656 124.660156 C 303 122.976562 302.035156 121.4375 300.503906 120.753906 L 189.425781 58.234375 C 189.105469 58.011719 188.761719 57.84375 188.390625 57.726562 C 188.019531 57.613281 187.636719 57.554688 187.25 57.550781 C 186.859375 57.550781 186.480469 57.609375 186.105469 57.722656 C 185.734375 57.835938 185.390625 58.003906 185.066406 58.226562 L 74.148438 120.875 C 72.648438 121.558594 71.617188 123.078125 71.804688 124.765625 L 71.804688 250.03125 C 71.671875 251.511719 72.460938 252.90625 73.820312 253.542969 L 103.460938 270.265625 C 109.027344 273.265625 115.863281 274.953125 121.992188 272.75 C 122.660156 272.5 123.300781 272.199219 123.925781 271.851562 C 124.546875 271.5 125.136719 271.105469 125.699219 270.667969 C 126.257812 270.230469 126.785156 269.75 127.273438 269.230469 C 127.761719 268.714844 128.207031 268.160156 128.609375 267.574219 C 129.015625 266.988281 129.371094 266.375 129.683594 265.734375 C 129.996094 265.09375 130.253906 264.433594 130.464844 263.75 C 130.675781 263.070312 130.835938 262.378906 130.941406 261.675781 C 131.046875 260.96875 131.097656 260.261719 131.09375 259.550781 L 131.121094 135.03125 C 130.992188 133.1875 132.734375 131.660156 134.523438 131.847656 L 148.773438 131.847656 C 150.648438 131.800781 152.117188 133.785156 151.867188 135.640625 L 151.839844 260.945312 C 151.847656 272.074219 147.273438 284.179688 136.972656 289.644531 C 124.277344 296.203125 108.585938 294.824219 96.046875 288.519531 L 64.175781 270.90625 C 56.675781 267.15625 51.640625 259.0625 51.6875 250.667969 L 51.6875 124.183594 C 51.695312 123.160156 51.773438 122.140625 51.914062 121.128906 C 52.058594 120.117188 52.269531 119.117188 52.546875 118.132812 C 52.820312 117.144531 53.164062 116.183594 53.566406 115.246094 C 53.972656 114.304688 54.4375 113.394531 54.964844 112.519531 C 55.488281 111.640625 56.070312 110.800781 56.710938 110 C 57.347656 109.199219 58.035156 108.445312 58.773438 107.738281 C 59.511719 107.027344 60.292969 106.371094 61.121094 105.765625 C 61.945312 105.160156 62.808594 104.613281 63.707031 104.125 Z M 207.332031 128.886719 C 223.519531 127.949219 240.851562 128.269531 255.417969 136.242188 C 266.695312 142.351562 272.945312 155.167969 273.152344 167.703125 C 272.835938 169.390625 271.070312 170.328125 269.460938 170.203125 C 264.773438 170.195312 260.066406 170.269531 255.363281 170.175781 C 253.363281 170.25 252.210938 168.414062 251.957031 166.652344 C 250.609375 160.65625 247.335938 154.726562 241.695312 151.832031 C 233.035156 147.492188 222.984375 147.710938 213.535156 147.804688 C 206.636719 148.179688 199.222656 148.769531 193.382812 152.816406 C 188.882812 155.890625 187.53125 162.183594 189.136719 167.074219 C 190.636719 170.664062 194.789062 171.816406 198.171875 172.882812 C 217.6875 177.980469 238.359375 177.570312 257.507812 184.191406 C 265.429688 186.929688 273.179688 192.25 275.898438 200.542969 C 279.441406 211.652344 277.894531 224.9375 269.992188 233.859375 C 263.582031 241.203125 254.246094 245.101562 244.917969 247.371094 C 232.519531 250.132812 219.65625 250.199219 207.066406 248.960938 C 195.230469 247.613281 182.910156 244.503906 173.773438 236.445312 C 165.953125 229.660156 162.148438 219.09375 162.523438 208.898438 C 162.617188 207.175781 164.332031 205.976562 165.992188 206.117188 L 180.054688 206.117188 C 181.945312 205.984375 183.332031 207.617188 183.425781 209.394531 C 184.300781 215.015625 186.445312 221.105469 191.433594 224.386719 C 201.050781 230.589844 213.113281 230.15625 224.117188 230.335938 C 233.238281 229.933594 243.476562 229.8125 250.929688 223.777344 C 254.863281 220.339844 256.019531 214.597656 254.957031 209.648438 C 253.804688 205.46875 249.335938 203.53125 245.585938 202.152344 C 226.320312 196.0625 205.417969 198.273438 186.34375 191.378906 C 178.601562 188.644531 171.109375 183.472656 168.140625 175.515625 C 163.984375 164.273438 165.890625 150.34375 174.636719 141.722656 C 183.070312 133.148438 195.445312 129.84375 207.160156 128.660156 Z M 207.332031 128.886719 " fill-opacity="1" fill-rule="nonzero"/></g></svg>