<svg xmlns="http://www.w3.org/2000/svg" xmlns:xlink="http://www.w3.org/1999/xlink" width="500" zoomAndPan="magnify" viewBox="0 0 375 374.999991" height="500" preserveAspectRatio="xMidYMid meet" version="1.0"><defs><clipPath id="f66bbbac2e"><path d="M 37.238281 38 L 337.988281 38 L 337.988281 337.988281 L 37.238281 337.988281 Z M 37.238281 38 " clip-rule="nonzero"/></clipPath></defs><rect x="-37.5" width="450" fill="#ffffff" y="-37.499999" height="449.999989" fill-opacity="1"/><rect x="-37.5" width="450" fill="#ffffff" y="-37.499999" height="449.999989" fill-opacity="1"/><rect x="-37.5" width="450" fill="#000000" y="-37.499999" height="449.999989" fill-opacity="1"/><g clip-path="url(#f66bbbac2e)"><path fill="#1a54bf" d="M 327.304688 69.675781 L 265.4375 39.910156 C 261.9375 38.214844 257.996094 37.652344 254.160156 38.300781 C 250.328125 38.949219 246.792969 40.777344 244.046875 43.53125 L 125.546875 151.65625 L 73.902344 112.492188 C 71.578125 110.714844 68.699219 109.808594 65.777344 109.933594 C 62.851562 110.058594 60.0625 111.207031 57.898438 113.179688 L 41.359375 128.253906 C 40.066406 129.421875 39.03125 130.847656 38.320312 132.4375 C 37.613281 134.03125 37.242188 135.753906 37.238281 137.496094 C 37.234375 139.238281 37.59375 140.960938 38.296875 142.558594 C 38.996094 144.152344 40.023438 145.582031 41.308594 146.757812 L 86.101562 187.628906 L 41.308594 228.503906 C 40.023438 229.675781 38.996094 231.109375 38.296875 232.703125 C 37.59375 234.296875 37.234375 236.023438 37.238281 237.765625 C 37.242188 239.507812 37.613281 241.230469 38.320312 242.820312 C 39.03125 244.414062 40.066406 245.839844 41.359375 247.007812 L 57.898438 262.082031 C 60.0625 264.050781 62.851562 265.199219 65.777344 265.324219 C 68.699219 265.453125 71.578125 264.546875 73.902344 262.769531 L 125.546875 223.558594 L 244.101562 331.730469 C 246.839844 334.480469 250.367188 336.308594 254.195312 336.957031 C 258.019531 337.609375 261.953125 337.042969 265.445312 335.351562 L 327.367188 305.539062 C 330.558594 304.003906 333.246094 301.605469 335.128906 298.605469 C 337.007812 295.609375 338 292.140625 337.988281 288.601562 L 337.988281 86.59375 C 337.988281 79.394531 333.824219 72.785156 327.320312 69.65625 Z M 262.832031 255.925781 L 172.863281 187.640625 L 262.832031 119.351562 Z M 262.832031 255.925781 " fill-opacity="1" fill-rule="nonzero"/></g></svg>