<svg xmlns="http://www.w3.org/2000/svg" xmlns:xlink="http://www.w3.org/1999/xlink" width="500" zoomAndPan="magnify" viewBox="0 0 375 374.999991" height="500" preserveAspectRatio="xMidYMid meet" version="1.0"><defs><clipPath id="f53ecb3594"><path d="M 25.535156 120.082031 L 349.535156 120.082031 L 349.535156 255.082031 L 25.535156 255.082031 Z M 25.535156 120.082031 " clip-rule="nonzero"/></clipPath></defs><rect x="-37.5" width="450" fill="#ffffff" y="-37.499999" height="449.999989" fill-opacity="1"/><rect x="-37.5" width="450" fill="#000000" y="-37.499999" height="449.999989" fill-opacity="1"/><g clip-path="url(#f53ecb3594)"><path fill="#d50000" d="M 25.707031 120.082031 L 349.367188 120.082031 L 349.367188 234.832031 L 187.535156 234.832031 L 187.535156 255.082031 L 113.363281 255.082031 L 113.363281 234.832031 L 25.707031 234.832031 Z M 25.707031 120.082031 " fill-opacity="1" fill-rule="nonzero"/></g><path fill="#ffffff" d="M 45.933594 214.582031 L 79.648438 214.582031 L 79.648438 160.582031 L 99.878906 160.582031 L 99.878906 214.582031 L 113.363281 214.582031 L 113.363281 140.332031 L 45.933594 140.332031 Z M 133.59375 140.332031 L 133.59375 234.832031 L 167.308594 234.832031 L 167.308594 214.582031 L 201.023438 214.582031 L 201.023438 140.332031 Z M 187.535156 194.332031 L 167.308594 194.332031 L 167.308594 160.582031 L 187.535156 160.582031 Z M 221.25 140.332031 L 221.25 214.582031 L 254.964844 214.582031 L 254.964844 160.582031 L 275.195312 160.582031 L 275.195312 214.582031 L 295.421875 214.582031 L 295.421875 160.582031 L 315.652344 160.582031 L 315.652344 214.582031 L 329.136719 214.582031 L 329.136719 140.332031 Z M 221.25 140.332031 " fill-opacity="1" fill-rule="nonzero"/></svg>