<svg xmlns="http://www.w3.org/2000/svg" xmlns:xlink="http://www.w3.org/1999/xlink" width="500" zoomAndPan="magnify" viewBox="0 0 375 374.999991" height="500" preserveAspectRatio="xMidYMid meet" version="1.0"><defs><clipPath id="5044a13f6e"><path d="M 48 54 L 324 54 L 324 337.359375 L 48 337.359375 Z M 48 54 " clip-rule="nonzero"/></clipPath></defs><rect x="-37.5" width="450" fill="#ffffff" y="-37.499999" height="449.999989" fill-opacity="1"/><rect x="-37.5" width="450" fill="#000000" y="-37.499999" height="449.999989" fill-opacity="1"/><g clip-path="url(#5044a13f6e)"><path fill="#000000" d="M 322.328125 224.027344 C 320.675781 219.035156 316.359375 215.554688 310.773438 214.714844 C 308.144531 214.328125 305.125 214.492188 301.5625 215.230469 C 295.34375 216.511719 290.726562 217.003906 287.351562 217.101562 C 300.066406 195.628906 310.410156 171.148438 316.359375 148.105469 C 325.980469 110.847656 320.835938 93.875 314.824219 86.195312 C 298.929688 65.875 275.722656 54.957031 247.738281 54.621094 C 232.8125 54.4375 219.699219 57.386719 212.871094 59.507812 C 206.503906 58.386719 199.652344 57.757812 192.476562 57.640625 C 179.011719 57.425781 167.113281 60.363281 156.953125 66.394531 C 151.324219 64.492188 142.292969 61.808594 131.863281 60.097656 C 107.335938 56.066406 87.566406 59.207031 73.105469 69.425781 C 55.59375 81.796875 47.476562 103.292969 48.980469 133.3125 C 49.457031 142.84375 54.785156 171.847656 63.179688 199.34375 C 68.003906 215.15625 73.148438 228.28125 78.46875 238.367188 C 86.015625 252.675781 94.089844 261.097656 103.152344 264.125 C 108.234375 265.8125 117.464844 267.003906 127.171875 258.914062 C 128.402344 260.398438 130.046875 261.878906 132.222656 263.253906 C 134.992188 265.007812 138.375 266.433594 141.753906 267.273438 C 153.933594 270.324219 165.339844 269.558594 175.070312 265.296875 C 175.136719 267.027344 175.179688 268.679688 175.222656 270.109375 C 175.285156 272.429688 175.351562 274.695312 175.4375 276.820312 C 176.003906 291.183594 176.980469 302.351562 179.882812 310.171875 C 180.042969 310.601562 180.257812 311.257812 180.484375 311.945312 C 181.921875 316.371094 184.339844 323.78125 190.480469 329.582031 C 196.847656 335.585938 204.546875 337.421875 211.59375 337.421875 C 215.125 337.421875 218.496094 336.960938 221.460938 336.328125 C 232.007812 334.070312 243.980469 330.625 252.644531 318.28125 C 260.839844 306.617188 264.8125 289.054688 265.53125 261.363281 C 265.628906 260.582031 265.714844 259.839844 265.800781 259.121094 C 265.855469 258.648438 265.910156 258.152344 265.972656 257.660156 L 267.90625 257.832031 L 268.398438 257.863281 C 279.136719 258.359375 292.273438 256.082031 300.335938 252.332031 C 306.714844 249.367188 327.140625 238.582031 322.328125 224.027344 " fill-opacity="1" fill-rule="nonzero"/></g><path fill="#336791" d="M 303.964844 226.855469 C 272.03125 233.449219 269.828125 222.632812 269.828125 222.632812 C 303.546875 172.578125 317.648438 109.054688 305.480469 93.511719 C 272.296875 51.097656 214.847656 71.15625 213.890625 71.675781 L 213.578125 71.730469 C 207.277344 70.421875 200.210938 69.640625 192.273438 69.511719 C 177.820312 69.273438 166.867188 73.300781 158.542969 79.609375 C 158.542969 79.609375 56.066406 37.382812 60.832031 132.71875 C 61.847656 153 89.894531 286.179688 123.351562 245.953125 C 135.578125 231.246094 147.394531 218.808594 147.394531 218.808594 C 153.261719 222.707031 160.285156 224.695312 167.648438 223.988281 L 168.21875 223.492188 C 168.046875 225.320312 168.121094 227.113281 168.457031 229.230469 C 159.832031 238.851562 162.367188 240.550781 145.136719 244.09375 C 127.703125 247.691406 137.945312 254.082031 144.632812 255.757812 C 152.738281 257.789062 171.496094 260.65625 184.167969 242.914062 L 183.660156 244.941406 C 187.035156 247.648438 189.40625 262.535156 189.007812 276.039062 C 188.613281 289.539062 188.34375 298.808594 191.007812 306.050781 C 193.667969 313.289062 196.320312 329.574219 218.96875 324.71875 C 237.890625 320.667969 247.707031 310.152344 249.070312 292.613281 C 250.035156 280.152344 252.226562 281.988281 252.367188 270.851562 L 254.117188 265.566406 C 256.148438 248.671875 254.441406 243.214844 266.101562 245.75 L 268.9375 246.007812 C 277.515625 246.394531 288.75 244.621094 295.34375 241.558594 C 309.539062 234.964844 317.957031 223.964844 303.957031 226.855469 L 303.964844 226.855469 " fill-opacity="1" fill-rule="nonzero"/><path fill="#ffffff" d="M 164.546875 141.789062 C 161.667969 141.386719 159.058594 141.757812 157.738281 142.757812 C 156.996094 143.320312 156.773438 143.972656 156.707031 144.417969 C 156.546875 145.605469 157.375 146.917969 157.878906 147.59375 C 159.328125 149.511719 161.441406 150.828125 163.527344 151.117188 C 163.839844 151.160156 164.136719 151.179688 164.429688 151.179688 C 167.917969 151.179688 171.085938 148.464844 171.367188 146.460938 C 171.71875 143.953125 168.070312 142.28125 164.546875 141.789062 " fill-opacity="1" fill-rule="nonzero"/><path fill="#ffffff" d="M 259.882812 141.867188 C 259.605469 139.902344 256.113281 139.339844 252.785156 139.804688 C 249.476562 140.265625 246.257812 141.761719 246.523438 143.734375 C 246.738281 145.265625 249.511719 147.882812 252.785156 147.882812 C 253.066406 147.882812 253.34375 147.863281 253.625 147.824219 C 255.804688 147.523438 257.414062 146.132812 258.175781 145.332031 C 259.335938 144.113281 260.003906 142.753906 259.882812 141.867188 " fill-opacity="1" fill-rule="nonzero"/><path fill="#ffffff" d="M 314.585938 226.113281 C 313.375 222.429688 309.453125 221.234375 302.933594 222.589844 C 283.605469 226.574219 276.679688 223.8125 274.402344 222.136719 C 289.4375 199.238281 301.796875 171.558594 308.464844 145.726562 C 311.632812 133.492188 313.375 122.128906 313.511719 112.871094 C 313.671875 102.707031 311.945312 95.234375 308.367188 90.671875 C 293.980469 72.277344 272.855469 62.414062 247.289062 62.140625 C 229.707031 61.945312 214.855469 66.445312 211.980469 67.707031 C 205.921875 66.199219 199.308594 65.273438 192.113281 65.15625 C 178.914062 64.941406 167.511719 68.101562 158.070312 74.542969 C 153.964844 73.015625 143.363281 69.375 130.398438 67.289062 C 107.984375 63.679688 90.175781 66.414062 77.464844 75.417969 C 62.296875 86.167969 55.296875 105.378906 56.652344 132.519531 C 57.109375 141.652344 62.3125 169.742188 70.519531 196.640625 C 81.324219 232.050781 93.070312 252.09375 105.429688 256.21875 C 106.875 256.703125 108.542969 257.035156 110.382812 257.035156 C 114.890625 257.035156 120.417969 255.007812 126.167969 248.089844 C 135.71875 236.597656 144.636719 226.960938 147.925781 223.460938 C 152.785156 226.070312 158.125 227.53125 163.582031 227.671875 C 163.589844 227.820312 163.601562 227.960938 163.613281 228.101562 C 162.515625 229.398438 161.625 230.539062 160.851562 231.515625 C 157.074219 236.316406 156.289062 237.316406 144.113281 239.816406 C 140.648438 240.539062 131.453125 242.429688 131.316406 248.882812 C 131.171875 255.929688 142.191406 258.882812 143.445312 259.195312 C 147.820312 260.289062 152.035156 260.839844 156.050781 260.839844 C 165.835938 260.839844 174.4375 257.628906 181.308594 251.40625 C 181.09375 276.519531 182.148438 301.277344 185.152344 308.820312 C 187.625 314.996094 193.660156 330.074219 212.71875 330.074219 C 215.511719 330.074219 218.59375 329.753906 221.976562 329.023438 C 241.863281 324.757812 250.5 315.972656 253.847656 296.585938 C 255.632812 286.230469 258.703125 261.484375 260.140625 248.21875 C 263.191406 249.164062 267.109375 249.601562 271.351562 249.601562 C 280.191406 249.601562 290.390625 247.722656 296.78125 244.75 C 303.976562 241.417969 316.9375 233.222656 314.585938 226.113281 Z M 267.230469 136.441406 C 267.152344 140.359375 266.617188 143.914062 266.046875 147.625 C 265.4375 151.617188 264.800781 155.746094 264.640625 160.757812 C 264.480469 165.628906 265.09375 170.699219 265.683594 175.609375 C 266.863281 185.511719 268.089844 195.703125 263.363281 205.769531 C 262.621094 204.457031 261.914062 203.039062 261.269531 201.460938 C 260.679688 200.03125 259.402344 197.746094 257.640625 194.578125 C 250.765625 182.257812 234.679688 153.386719 242.917969 141.609375 C 245.367188 138.105469 251.59375 134.5 267.230469 136.441406 Z M 248.277344 70.074219 C 271.191406 70.578125 289.308594 79.152344 302.140625 95.550781 C 311.976562 108.128906 301.140625 165.371094 269.773438 214.746094 C 269.464844 214.347656 269.152344 213.953125 268.820312 213.542969 C 268.691406 213.382812 268.5625 213.210938 268.421875 213.050781 C 276.527344 199.65625 274.949219 186.410156 273.53125 174.660156 C 272.953125 169.835938 272.40625 165.285156 272.546875 161.007812 C 272.695312 156.476562 273.296875 152.589844 273.867188 148.828125 C 274.585938 144.195312 275.304688 139.402344 275.113281 133.75 C 275.261719 133.160156 275.316406 132.457031 275.242188 131.628906 C 274.726562 126.207031 268.539062 109.988281 255.933594 95.308594 C 249.039062 87.28125 238.988281 78.296875 225.253906 72.238281 C 231.160156 71.011719 239.234375 69.871094 248.277344 70.070312 Z M 120.078125 243.027344 C 113.742188 250.644531 109.367188 249.183594 107.929688 248.710938 C 98.550781 245.574219 87.675781 225.757812 78.085938 194.328125 C 69.785156 167.128906 64.9375 139.789062 64.550781 132.121094 C 63.339844 107.871094 69.21875 90.96875 82.023438 81.886719 C 102.859375 67.105469 137.117188 75.953125 150.882812 80.4375 C 150.683594 80.632812 150.480469 80.816406 150.285156 81.015625 C 127.695312 103.835938 128.230469 142.820312 128.285156 145.203125 C 128.285156 146.125 128.359375 147.425781 128.464844 149.214844 C 128.855469 155.773438 129.578125 167.980469 127.644531 181.804688 C 125.851562 194.640625 129.808594 207.214844 138.503906 216.28125 C 139.402344 217.226562 140.34375 218.109375 141.3125 218.933594 C 137.445312 223.082031 129.03125 232.253906 120.078125 243.027344 Z M 144.21875 210.804688 C 137.210938 203.5 134.027344 193.316406 135.484375 182.898438 C 137.523438 168.289062 136.769531 155.578125 136.367188 148.746094 C 136.308594 147.792969 136.261719 146.953125 136.230469 146.292969 C 139.53125 143.367188 154.824219 135.171875 165.722656 137.671875 C 170.707031 138.808594 173.734375 142.199219 175 148.03125 C 181.519531 178.214844 175.859375 190.792969 171.320312 200.910156 C 170.375 202.984375 169.492188 204.960938 168.730469 206.992188 L 168.152344 208.570312 C 166.65625 212.554688 165.285156 216.25 164.425781 219.761719 C 156.972656 219.742188 149.726562 216.5625 144.21875 210.804688 Z M 145.359375 251.523438 C 143.183594 250.976562 141.230469 250.03125 140.082031 249.246094 C 141.039062 248.796875 142.746094 248.183594 145.707031 247.570312 C 160.03125 244.628906 162.246094 242.542969 167.066406 236.410156 C 168.183594 235.003906 169.429688 233.402344 171.167969 231.46875 L 171.167969 231.460938 C 173.765625 228.558594 174.949219 229.054688 177.097656 229.945312 C 178.835938 230.664062 180.53125 232.84375 181.21875 235.25 C 181.542969 236.378906 181.90625 238.539062 180.714844 240.214844 C 170.621094 254.339844 155.917969 254.167969 145.359375 251.523438 Z M 220.320312 321.289062 C 202.792969 325.035156 196.585938 316.101562 192.503906 305.875 C 189.863281 299.277344 188.566406 269.515625 189.488281 236.648438 C 189.5 236.21875 189.433594 235.789062 189.316406 235.390625 C 189.210938 234.628906 189.046875 233.855469 188.824219 233.070312 C 187.457031 228.289062 184.128906 224.296875 180.125 222.628906 C 178.535156 221.976562 175.613281 220.761719 172.113281 221.664062 C 172.863281 218.582031 174.152344 215.101562 175.558594 211.339844 L 176.152344 209.75 C 176.816406 207.96875 177.644531 206.109375 178.535156 204.15625 C 183.292969 193.574219 189.808594 179.085938 182.734375 146.359375 C 180.082031 134.097656 171.234375 128.109375 157.820312 129.5 C 149.769531 130.332031 142.414062 133.578125 138.742188 135.441406 C 137.953125 135.839844 137.230469 136.226562 136.558594 136.601562 C 137.582031 124.25 141.453125 101.167969 155.929688 86.5625 C 165.046875 77.367188 177.183594 72.824219 191.980469 73.070312 C 221.125 73.546875 239.808594 88.507812 250.355469 100.972656 C 259.449219 111.714844 264.367188 122.539062 266.332031 128.375 C 251.566406 126.871094 241.515625 129.789062 236.425781 137.070312 C 225.34375 152.910156 242.484375 183.660156 250.71875 198.429688 C 252.234375 201.136719 253.535156 203.480469 253.953125 204.476562 C 256.625 210.976562 260.105469 215.316406 262.640625 218.496094 C 263.414062 219.460938 264.175781 220.40625 264.746094 221.222656 C 260.265625 222.511719 252.234375 225.5 252.964844 240.394531 C 252.375 247.871094 248.175781 282.867188 246.039062 295.242188 C 243.222656 311.578125 237.210938 317.65625 220.320312 321.289062 Z M 293.449219 237.570312 C 288.875 239.699219 281.21875 241.289062 273.949219 241.632812 C 265.914062 242.007812 261.824219 240.730469 260.867188 239.945312 C 260.417969 230.664062 263.863281 229.6875 267.527344 228.667969 C 268.09375 228.503906 268.664062 228.34375 269.199219 228.160156 C 269.535156 228.429688 269.910156 228.699219 270.308594 228.96875 C 276.761719 233.230469 288.285156 233.695312 304.53125 230.332031 C 304.59375 230.320312 304.660156 230.308594 304.714844 230.300781 C 302.523438 232.351562 298.773438 235.101562 293.449219 237.570312 Z M 293.449219 237.570312 " fill-opacity="1" fill-rule="nonzero"/></svg>