<svg width="150" height="150" viewBox="0 0 150 150" fill="none" xmlns="http://www.w3.org/2000/svg">
<g clip-path="url(#clip0_34_734)">
<path d="M26.5625 1.20902e-05H123.438C126.927 -0.00336079 130.382 0.699013 133.606 2.06694C136.831 3.43486 139.76 5.44148 142.227 7.97195C144.695 10.5024 146.651 13.5071 147.985 16.8139C149.318 20.1208 150.003 23.665 150 27.2436V122.756C150.003 126.335 149.318 129.879 147.985 133.186C146.651 136.493 144.695 139.498 142.227 142.028C139.76 144.559 136.831 146.565 133.606 147.933C130.382 149.301 126.927 150.003 123.438 150H26.5625C23.0734 150.003 19.6178 149.301 16.3936 147.933C13.1694 146.565 10.2399 144.559 7.77265 142.028C5.30544 139.498 3.34899 136.493 2.01526 133.186C0.681538 129.879 -0.00327677 126.335 1.1788e-05 122.756V27.2436C-0.00327677 23.665 0.681538 20.1208 2.01526 16.8139C3.34899 13.5071 5.30544 10.5024 7.77265 7.97195C10.2399 5.44148 13.1694 3.43486 16.3936 2.06694C19.6178 0.699013 23.0734 -0.00336079 26.5625 1.20902e-05Z" fill="#000B1D"/>
<path d="M60.6252 120.75C69.2547 120.75 76.2502 113.754 76.2502 105.125V89.5H60.6252C51.9958 89.5 45.0002 96.4955 45.0002 105.125C45.0002 113.754 51.9958 120.75 60.6252 120.75Z" fill="#0ACF83"/>
<path d="M45.0002 73.875C45.0002 65.2455 51.9958 58.25 60.6252 58.25H76.2502V89.5H60.6252C51.9958 89.5 45.0002 82.5045 45.0002 73.875Z" fill="#A259FF"/>
<path d="M45.0002 42.625C45.0002 33.9955 51.9958 27 60.6252 27H76.2502V58.25H60.6252C51.9958 58.25 45.0002 51.2545 45.0002 42.625Z" fill="#F24E1E"/>
<path d="M76.2502 27H91.8752C100.505 27 107.5 33.9955 107.5 42.625C107.5 51.2545 100.505 58.25 91.8752 58.25H76.2502V27Z" fill="#FF7262"/>
<path d="M107.5 73.875C107.5 82.5045 100.505 89.5 91.8752 89.5C83.2458 89.5 76.2502 82.5045 76.2502 73.875C76.2502 65.2455 83.2458 58.25 91.8752 58.25C100.505 58.25 107.5 65.2455 107.5 73.875Z" fill="#1ABCFE"/>
</g>
<defs>
<clipPath id="clip0_34_734">
<rect width="150" height="150" fill="white"/>
</clipPath>
</defs>
</svg>
