<svg width="150" height="150" viewBox="0 0 150 150" fill="none" xmlns="http://www.w3.org/2000/svg">
<g clip-path="url(#clip0_34_726)">
<path d="M26.5625 1.20902e-05H123.438C126.927 -0.00336079 130.382 0.699013 133.606 2.06694C136.831 3.43486 139.76 5.44148 142.227 7.97195C144.695 10.5024 146.651 13.5071 147.985 16.8139C149.318 20.1208 150.003 23.665 150 27.2436V122.756C150.003 126.335 149.318 129.879 147.985 133.186C146.651 136.493 144.695 139.498 142.227 142.028C139.76 144.559 136.831 146.565 133.606 147.933C130.382 149.301 126.927 150.003 123.438 150H26.5625C23.0733 150.003 19.6178 149.301 16.3936 147.933C13.1694 146.565 10.2399 144.559 7.77265 142.028C5.30544 139.498 3.34899 136.493 2.01526 133.186C0.681538 129.879 -0.00327677 126.335 1.1788e-05 122.756V27.2436C-0.00327677 23.665 0.681538 20.1208 2.01526 16.8139C3.34899 13.5071 5.30544 10.5024 7.77265 7.97195C10.2399 5.44148 13.1694 3.43486 16.3936 2.06694C19.6178 0.699013 23.0733 -0.00336079 26.5625 1.20902e-05Z" fill="#000B1D"/>
<g clip-path="url(#clip1_34_726)">
<path d="M75 84.9183C80.7594 84.9183 85.4283 80.3099 85.4283 74.625C85.4283 68.9401 80.7594 64.3317 75 64.3317C69.2406 64.3317 64.5717 68.9401 64.5717 74.625C64.5717 80.3099 69.2406 84.9183 75 84.9183Z" fill="#61DAFB"/>
<path fill-rule="evenodd" clip-rule="evenodd" d="M25.0741 68.2022C22.5439 70.4567 21.481 72.6312 21.481 74.625C21.481 76.6188 22.5439 78.7933 25.0741 81.0478C27.6041 83.3021 31.4019 85.4425 36.3022 87.2893C46.0862 90.9767 59.7672 93.3078 75 93.3078C90.2328 93.3078 103.914 90.9767 113.698 87.2893C118.598 85.4425 122.396 83.3021 124.926 81.0478C127.456 78.7933 128.519 76.6188 128.519 74.625C128.519 72.6312 127.456 70.4567 124.926 68.2022C122.396 65.9479 118.598 63.8075 113.698 61.9607C103.914 58.2733 90.2328 55.9422 75 55.9422C59.7672 55.9422 46.0862 58.2733 36.3022 61.9607C31.4019 63.8075 27.6041 65.9479 25.0741 68.2022ZM34.5633 57.4653C45.0316 53.52 59.3288 51.1302 75 51.1302C90.6712 51.1302 104.968 53.52 115.437 57.4653C120.662 59.4348 125.059 61.8386 128.192 64.6304C131.325 67.4219 133.394 70.7953 133.394 74.625C133.394 78.4547 131.325 81.8281 128.192 84.6196C125.059 87.4114 120.662 89.8152 115.437 91.7847C104.968 95.73 90.6712 98.1197 75 98.1197C59.3288 98.1197 45.0316 95.73 34.5633 91.7847C29.3375 89.8152 24.9407 87.4114 21.8075 84.6196C18.6746 81.8281 16.606 78.4547 16.606 74.625C16.606 70.7953 18.6746 67.4219 21.8075 64.6304C24.9407 61.8386 29.3375 59.4348 34.5633 57.4653Z" fill="#61DAFB"/>
<path fill-rule="evenodd" clip-rule="evenodd" d="M55.6723 28.736C52.4291 27.7004 49.9898 27.879 48.2405 28.8759C46.4912 29.8728 45.1148 31.8686 44.4019 35.1588C43.689 38.4486 43.7099 42.7652 44.5397 47.8775C46.1965 58.0847 50.9917 70.9451 58.6081 83.9664C66.2245 96.9877 75.1103 107.517 83.2375 114.037C87.308 117.302 91.0849 119.479 94.3277 120.514C97.5709 121.55 100.01 121.371 101.76 120.374C103.509 119.377 104.885 117.381 105.598 114.091C106.311 110.801 106.29 106.485 105.46 101.373C103.804 91.1653 99.0083 78.3049 91.3919 65.2836C83.7755 52.2623 74.8897 41.7331 66.7625 35.2132C62.692 31.9477 58.9151 29.7715 55.6723 28.736ZM69.8372 31.479C78.5329 38.4549 87.7782 49.4816 95.6138 62.8776C103.449 76.2737 108.501 89.6901 110.274 100.611C111.159 106.063 111.248 111.024 110.365 115.098C109.483 119.172 107.557 122.627 104.197 124.541C100.837 126.456 96.8429 126.375 92.8272 125.092C88.8112 123.81 84.5037 121.253 80.1628 117.771C71.4671 110.795 62.2218 99.7684 54.3862 86.3724C46.5507 72.9764 41.4988 59.5599 39.7261 48.6388C38.8412 43.1869 38.7518 38.2265 39.6347 34.1523C40.5175 30.0785 42.4429 26.6235 45.803 24.7086C49.1631 22.7938 53.1571 22.8754 57.1728 24.1577C61.1888 25.4401 65.4963 27.9967 69.8372 31.479Z" fill="#61DAFB"/>
<path fill-rule="evenodd" clip-rule="evenodd" d="M105.598 35.1588C104.885 31.8686 103.509 29.8728 101.76 28.8759C100.01 27.879 97.5709 27.7004 94.3277 28.736C91.0849 29.7715 87.308 31.9477 83.2375 35.2132C75.1103 41.7331 66.2245 52.2623 58.6081 65.2836C50.9917 78.3049 46.1965 91.1653 44.5397 101.373C43.7099 106.485 43.689 110.801 44.4019 114.091C45.1148 117.381 46.4912 119.377 48.2405 120.374C49.9898 121.371 52.4291 121.55 55.6723 120.514C58.9151 119.479 62.6919 117.302 66.7625 114.037C74.8897 107.517 83.7755 96.9877 91.3919 83.9664C99.0083 70.9451 103.804 58.0847 105.46 47.8775C106.29 42.7652 106.311 38.4486 105.598 35.1588ZM110.274 48.6388C108.501 59.5599 103.449 72.9764 95.6138 86.3724C87.7782 99.7684 78.5329 110.795 69.8372 117.771C65.4963 121.253 61.1888 123.81 57.1728 125.092C53.1571 126.375 49.1631 126.456 45.803 124.541C42.4429 122.627 40.5175 119.172 39.6347 115.098C38.7518 111.024 38.8412 106.063 39.7261 100.611C41.4988 89.6901 46.5507 76.2737 54.3862 62.8777C62.2218 49.4816 71.4671 38.4549 80.1628 31.479C84.5037 27.9967 88.8112 25.4401 92.8272 24.1577C96.8429 22.8754 100.837 22.7938 104.197 24.7086C107.557 26.6235 109.483 30.0785 110.365 34.1523C111.248 38.2265 111.159 43.1869 110.274 48.6388Z" fill="#61DAFB"/>
</g>
</g>
<defs>
<clipPath id="clip0_34_726">
<rect width="150" height="150" fill="white"/>
</clipPath>
<clipPath id="clip1_34_726">
<rect width="117" height="102.75" fill="white" transform="translate(16.5 23.25)"/>
</clipPath>
</defs>
</svg>
